<svg xmlns="http://www.w3.org/2000/svg" xmlns:xlink="http://www.w3.org/1999/xlink" width="100%" height="100%" version="1.1" viewBox="0 0 175 40" xml:space="preserve" style="fill-rule:evenodd;clip-rule:evenodd;stroke-linejoin:round;stroke-miterlimit:2"><g><path d="M95.468,15.585L93.888,17.164C93.626,17.427 93.304,17.574 92.924,17.574L86.111,17.574L86.111,4.707L92.924,4.707C93.304,4.707 93.626,4.853 93.889,5.116L95.468,6.695C95.731,6.958 95.878,7.28 95.878,7.66L95.878,14.619C95.878,14.999 95.76,15.321 95.468,15.584L95.468,15.585ZM93.568,8.041C93.568,7.953 93.538,7.836 93.45,7.778L92.69,7.018C92.602,6.93 92.544,6.901 92.427,6.901L88.42,6.901L88.42,15.351L92.426,15.351C92.543,15.351 92.631,15.321 92.689,15.234L93.449,14.474C93.523,14.406 93.566,14.311 93.566,14.21L93.566,8.04L93.568,8.041ZM99.445,17.573L99.445,15.526L101.754,15.526L101.754,6.754L99.444,6.754L99.444,4.708L106.374,4.708L106.374,6.754L104.064,6.754L104.064,15.526L106.374,15.526L106.374,17.573L99.444,17.573L99.445,17.573ZM119.298,17.573L119.006,15.936L117.778,17.164C117.515,17.427 117.193,17.574 116.813,17.574L112.895,17.574C112.515,17.574 112.193,17.427 111.93,17.164L110.351,15.584C110.088,15.332 109.94,14.984 109.942,14.62L109.942,7.66C109.942,7.28 110.088,6.96 110.351,6.696L111.93,5.117C112.193,4.854 112.515,4.707 112.895,4.707L117.895,4.707C118.275,4.707 118.596,4.854 118.86,5.117L120.526,6.784L118.977,8.334L117.661,7.018C117.573,6.93 117.515,6.901 117.398,6.901L113.392,6.901C113.275,6.901 113.187,6.93 113.129,7.018L112.368,7.778C112.294,7.846 112.252,7.941 112.251,8.041L112.251,14.24C112.251,14.328 112.281,14.444 112.368,14.503L113.129,15.263C113.216,15.351 113.275,15.38 113.392,15.38L116.433,15.38C116.55,15.38 116.637,15.35 116.696,15.263L118.45,13.509C118.538,13.421 118.567,13.363 118.567,13.246L118.567,12.251L115.38,12.251L115.38,10.06L120.877,10.06L120.877,15.03L121.374,17.603L119.298,17.603L119.298,17.573ZM124.678,17.573L124.678,15.526L126.988,15.526L126.988,6.754L124.678,6.754L124.678,4.708L131.608,4.708L131.608,6.754L129.298,6.754L129.298,15.526L131.608,15.526L131.608,17.573L124.678,17.573ZM140.029,6.9L140.029,17.544L137.719,17.544L137.719,6.9L134.006,6.9L134.006,4.708L143.743,4.708L143.743,6.9L140.029,6.9ZM154.328,17.573L153.099,14.357L147.982,14.357L146.754,17.573L144.444,17.573L149.211,4.708L151.959,4.708L156.667,17.573L154.328,17.573ZM150.556,7.193L148.772,12.281L152.339,12.281L150.556,7.193ZM160,17.573L160,4.708L162.31,4.708L162.31,15.35L168.626,15.35L168.626,17.543L160,17.543L160,17.573ZM86.111,35.41L86.111,22.543L88.421,22.543L88.421,33.186L94.737,33.186L94.737,35.379L86.11,35.379L86.11,35.409L86.111,35.41ZM97.924,35.41L97.924,33.363L100.234,33.363L100.234,24.59L97.924,24.59L97.924,22.543L104.854,22.543L104.854,24.59L102.544,24.59L102.544,33.362L104.854,33.362L104.854,35.408L97.924,35.408L97.924,35.41ZM118.421,33.772L117.164,35.029C116.917,35.279 116.579,35.416 116.228,35.409L109.064,35.409L109.064,22.544L116.228,22.544C116.608,22.544 116.901,22.69 117.164,22.924L118.421,24.181C118.684,24.444 118.83,24.766 118.83,25.146L118.83,26.901C118.83,27.281 118.684,27.602 118.421,27.866L117.31,28.976L118.421,30.088C118.684,30.351 118.83,30.672 118.83,31.053L118.83,32.836C118.83,33.158 118.684,33.509 118.421,33.772ZM116.52,25.556C116.52,25.439 116.491,25.351 116.404,25.292L115.965,24.854C115.877,24.766 115.819,24.737 115.702,24.737L111.374,24.737L111.374,27.866L115.234,27.866C115.322,27.866 115.439,27.836 115.497,27.749L116.374,26.871C116.462,26.784 116.491,26.725 116.491,26.608L116.491,25.556L116.52,25.556ZM116.52,31.345C116.52,31.228 116.491,31.14 116.404,31.082L115.468,30.146C115.38,30.058 115.322,30.029 115.205,30.029L111.374,30.029L111.374,33.187L115.702,33.187C115.789,33.187 115.906,33.157 115.965,33.07L116.404,32.632C116.491,32.544 116.52,32.485 116.52,32.368L116.52,31.345ZM131.17,35.41L127.368,30.526C127.295,30.42 127.176,30.354 127.047,30.351L125.643,30.351L125.643,35.409L123.333,35.409L123.333,22.544L130.497,22.544C130.877,22.544 131.17,22.69 131.433,22.924L132.69,24.181C132.953,24.444 133.099,24.766 133.099,25.146L133.099,27.69C133.099,28.07 132.953,28.392 132.69,28.655L131.433,29.912C131.17,30.175 130.877,30.292 130.497,30.292L130.029,30.292L134.006,35.351L131.17,35.351L131.17,35.41ZM130.789,25.556C130.789,25.439 130.76,25.351 130.673,25.292L130.234,24.854C130.146,24.766 130.088,24.737 129.971,24.737L125.643,24.737L125.643,28.129L129.971,28.129C130.088,28.129 130.175,28.099 130.234,28.012L130.673,27.602C130.76,27.515 130.789,27.456 130.789,27.339L130.789,25.556ZM145.906,35.41L144.678,32.193L139.561,32.193L138.333,35.409L136.023,35.409L140.789,22.544L143.538,22.544L148.246,35.409L145.906,35.409L145.906,35.41ZM142.134,25.03L140.351,30.117L143.889,30.117L142.134,25.029L142.134,25.03ZM159.24,35.41L155.439,30.526C155.366,30.42 155.246,30.355 155.117,30.351L153.713,30.351L153.713,35.409L151.404,35.409L151.404,22.544L158.567,22.544C158.947,22.544 159.24,22.69 159.503,22.924L160.76,24.181C161.023,24.444 161.17,24.766 161.17,25.146L161.17,27.69C161.17,28.07 161.023,28.392 160.76,28.655L159.503,29.912C159.24,30.175 158.947,30.292 158.567,30.292L158.099,30.292L162.076,35.351L159.24,35.351L159.24,35.41ZM158.83,25.556C158.83,25.439 158.801,25.351 158.713,25.292L158.275,24.854C158.187,24.766 158.129,24.737 158.012,24.737L153.684,24.737L153.684,28.129L158.012,28.129C158.129,28.129 158.216,28.099 158.275,28.012L158.713,27.602C158.801,27.515 158.83,27.456 158.83,27.339L158.83,25.556ZM170.526,29.708L170.526,35.38L168.216,35.38L168.216,29.708L163.86,22.544L166.374,22.544L169.386,27.544L172.368,22.544L174.854,22.544L170.526,29.708ZM12.193,26.199L7.485,13.363L4.737,13.363L0,26.199L2.31,26.199L3.509,22.983L8.626,22.983L9.825,26.199L12.193,26.199ZM7.866,20.936L4.326,20.936L6.11,15.848L7.865,20.936L7.866,20.936ZM23.684,24.123L22.134,22.573L20.819,23.889C20.731,23.977 20.673,24.006 20.556,24.006L17.368,24.006C17.252,24.006 17.164,23.976 17.105,23.889L16.345,23.129C16.271,23.061 16.228,22.966 16.228,22.865L16.228,16.695C16.228,16.608 16.258,16.491 16.345,16.433L17.105,15.673C17.193,15.585 17.251,15.556 17.368,15.556L20.556,15.556C20.672,15.556 20.76,15.585 20.819,15.673L22.135,16.988L23.685,15.438L22.017,13.772C21.766,13.509 21.417,13.361 21.053,13.362L16.87,13.362C16.49,13.362 16.169,13.509 15.905,13.772L14.326,15.351C14.063,15.603 13.915,15.952 13.917,16.316L13.917,23.275C13.917,23.655 14.063,23.977 14.327,24.24L15.905,25.819C16.169,26.082 16.49,26.229 16.87,26.229L21.052,26.229C21.432,26.229 21.753,26.082 22.016,25.819L23.683,24.123L23.684,24.123ZM39.474,26.2L39.474,13.363L35.936,13.363L32.895,23.304L29.854,13.363L26.316,13.363L26.316,26.199L28.567,26.199L28.567,15.994L31.696,26.2L34.094,26.2L37.222,15.995L37.222,26.2L39.474,26.2ZM58.246,3.421L52.895,2.018L51.491,7.368L55.351,6.316L58.246,3.421ZM53.772,7.953L46.052,10.059L47.222,14.444L53.772,7.954L53.772,7.953ZM79.942,14.941L81.374,9.474L76.024,8.099L77.105,12.164L79.942,14.941ZM46.842,25.146L45.409,30.526L50.76,31.901L49.708,28.011L46.842,25.146ZM73.333,2.66L68.89,3.89L75.469,10.469L73.334,2.662L73.333,2.66ZM72.924,32.076L80.76,29.942L79.532,25.468L72.924,32.076ZM68.45,36.55L73.918,37.983L75.322,32.632L71.257,33.713L68.45,36.55ZM53.45,37.34L57.836,36.17L51.374,29.678L53.45,37.339L53.45,37.34ZM79.65,23.684L83.332,20L71.637,8.304L63.333,0L43.333,20L49.913,26.579L59.62,36.286L63.333,40L69.825,33.509L79.649,23.684L79.65,23.684ZM63.216,23.041C63.216,23.391 63.099,23.713 62.836,23.947L61.345,25.439C61.082,25.702 60.789,25.819 60.439,25.819L53.977,25.819L53.977,13.626L60.439,13.626C60.789,13.626 61.111,13.743 61.345,14.006L62.836,15.497C63.099,15.76 63.216,16.053 63.216,16.404L63.216,23.041ZM66.813,13.626L69.006,13.626L69.006,23.743L75,23.743L75,25.819L66.813,25.819L66.813,13.626Z" style="fill:#3d0d00;fill-rule:nonzero"/><path d="M60.205,15.819C60.137,15.746 60.041,15.704 59.941,15.702L56.141,15.702L56.141,23.742L59.941,23.742C60.058,23.742 60.117,23.713 60.205,23.626L60.906,22.924C60.965,22.836 61.023,22.749 61.023,22.661L61.023,16.784C61.023,16.683 60.98,16.588 60.906,16.52L60.205,15.819Z" style="fill:#3d0d00;fill-rule:nonzero"/></g></svg>